<svg width="540" height="540" viewBox="0 0 540 540" fill="none" xmlns="http://www.w3.org/2000/svg">
<rect width="540" height="540" rx="128" fill="black"/>
<path d="M196.75 128H256.375V314.562C256.375 335.688 252.5 352.938 244.75 366.312C237.125 379.562 226.5 389.312 212.875 395.562C199.25 401.688 183.438 404.75 165.438 404.75C147.312 404.75 131.375 401.688 117.625 395.562C103.875 389.312 93.125 379.562 85.375 366.312C77.75 352.938 73.9375 335.688 73.9375 314.562V128H133.75V314.562C133.75 326.188 134.938 335.062 137.312 341.188C139.688 347.188 143.188 351.25 147.812 353.375C152.562 355.5 158.438 356.562 165.438 356.562C172.562 356.562 178.375 355.5 182.875 353.375C187.5 351.25 190.938 347.188 193.188 341.188C195.562 335.062 196.75 326.188 196.75 314.562V128ZM410.875 328.812C410.875 324.188 410.438 320.062 409.562 316.438C408.688 312.688 407 309.25 404.5 306.125C402 302.875 398.25 299.625 393.25 296.375C388.25 293.125 381.688 289.75 373.562 286.25C363.562 282.125 353.812 277.625 344.312 272.75C334.938 267.75 326.5 262 319 255.5C311.5 248.875 305.5 241.125 301 232.25C296.5 223.25 294.25 212.75 294.25 200.75C294.25 189.125 296.438 178.625 300.812 169.25C305.188 159.75 311.312 151.688 319.188 145.062C327.062 138.312 336.375 133.188 347.125 129.688C357.875 126.062 369.688 124.25 382.562 124.25C399.938 124.25 415.125 127.812 428.125 134.938C441.125 141.938 451.25 151.812 458.5 164.562C465.75 177.188 469.375 191.938 469.375 208.812H410.125C410.125 201.438 409.125 195 407.125 189.5C405.125 183.875 402 179.5 397.75 176.375C393.625 173.125 388.188 171.5 381.438 171.5C375.188 171.5 370 172.812 365.875 175.438C361.75 178.062 358.688 181.625 356.688 186.125C354.688 190.625 353.688 195.625 353.688 201.125C353.688 205.5 354.688 209.375 356.688 212.75C358.812 216.125 361.625 219.25 365.125 222.125C368.75 225 373 227.75 377.875 230.375C382.875 233 388.25 235.5 394 237.875C406.25 242.75 417.125 248.062 426.625 253.812C436.25 259.562 444.25 266.062 450.625 273.312C457.125 280.438 462 288.562 465.25 297.688C468.625 306.688 470.312 316.938 470.312 328.438C470.312 340.188 468.312 350.812 464.312 360.312C460.312 369.688 454.562 377.688 447.062 384.312C439.688 390.938 430.688 396 420.062 399.5C409.438 403 397.562 404.75 384.438 404.75C372.062 404.75 360.125 403 348.625 399.5C337.125 395.875 326.875 390.375 317.875 383C309 375.625 301.938 366.188 296.688 354.688C291.438 343.188 288.812 329.5 288.812 313.625H348.438C348.438 321.75 349.125 328.688 350.5 334.438C352 340.062 354.25 344.562 357.25 347.938C360.375 351.312 364.188 353.812 368.688 355.438C373.312 356.938 378.812 357.688 385.188 357.688C391.688 357.688 396.812 356.375 400.562 353.75C404.312 351.125 406.938 347.688 408.438 343.438C410.062 339.062 410.875 334.188 410.875 328.812Z" fill="white"/>
</svg>
